<svg width="311" height="132" viewBox="0 0 311 132" fill="none" xmlns="http://www.w3.org/2000/svg">
<path d="M119 128C130.598 128 140 118.598 140 107C140 95.402 130.598 86 119 86C107.402 86 98 95.402 98 107C98 118.598 107.402 128 119 128Z" fill="#7F265B"/>
<path d="M72 128C83.598 128 93 118.598 93 107C93 95.402 83.598 86 72 86C60.402 86 51 95.402 51 107C51 118.598 60.402 128 72 128Z" fill="#7F265B"/>
<path d="M249 128C260.598 128 270 118.598 270 107C270 95.402 260.598 86 249 86C237.402 86 228 95.402 228 107C228 118.598 237.402 128 249 128Z" fill="#7F265B"/>
<path d="M24.5 107C30.299 107 35 102.299 35 96.5C35 90.701 30.299 86 24.5 86C18.701 86 14 90.701 14 96.5C14 102.299 18.701 107 24.5 107Z" fill="#7F265B"/>
<path d="M25 86H307V92C307 100.284 299.907 107 291.157 107H25V86Z" fill="#7F265B"/>
<path d="M32.5 66C38.299 66 43 61.299 43 55.5C43 49.701 38.299 45 32.5 45C26.701 45 22 49.701 22 55.5C22 61.299 26.701 66 32.5 66Z" fill="#7F265B"/>
<path d="M33 45H53.5H54.4875C59.9345 45 64.272 40.4402 64 35L119 45V55.5C119 61.299 114.299 66 108.5 66H33V45Z" fill="#7F265B"/>
<path d="M10.5 21C16.299 21 21 16.299 21 10.5C21 4.70101 16.299 0 10.5 0C4.70101 0 0 4.70101 0 10.5C0 16.299 4.70101 21 10.5 21Z" fill="#7F265B"/>
<path d="M11 0H93V9.1899C93 16.1184 88.2547 22.1454 81.5196 23.7711L64 28C64 24.134 60.866 21 57 21H56.5H11V0Z" fill="#7F265B"/>
<path d="M201.495 15C201.495 6.71573 208.581 0 217.321 0H253.768C261.845 0 268.626 5.76525 269.501 13.3759L272.998 43.8149C273.462 47.8571 276.463 51.2303 280.588 52.3474L291.695 55.3555C300.754 57.8087 307 65.6564 307 74.586V88H250.028H191.5C196.657 88.2715 201.495 83.8813 201.495 78.9861V72.5V15Z" fill="#7F265B"/>
<path d="M64 0H158C166.284 0 173 6.71573 173 15V79.5C173.281 84.2731 177.233 88 182.015 88H183H173H85.5L86.2281 87.3011C92.563 81.2195 92.342 71.0209 85.7495 65.2196L85.5 65H64V0Z" fill="#7F265B"/>
</svg>
